<svg width="512" height="512" viewBox="0 0 512 512" xmlns="http://www.w3.org/2000/svg">
<rect width="512" height="512" fill="#f8f7f4"/>
<ellipse cx="256" cy="478" rx="75" ry="10" fill="#00000012"/>
<polygon points="175,455 212,453 214,470 173,472" fill="#1a2a1a"/>
<polygon points="173,472 214,470 212,478 171,480" fill="#0a150a"/>
<polygon points="242,453 279,455 283,478 240,480" fill="#1a2a1a"/>
<polygon points="240,480 283,478 281,486 238,486" fill="#0a150a"/>
<polygon points="182,372 208,372 206,455 178,455" fill="#065f46"/>
<polygon points="178,455 206,455 204,470 176,470" fill="#064e3b"/>
<polygon points="248,372 274,372 280,455 250,455" fill="#065f46"/>
<polygon points="250,455 280,455 282,470 248,470" fill="#064e3b"/>
<polygon points="172,212 340,212 350,375 160,375" fill="#059669"/>
<polygon points="172,212 198,212 178,375 160,375" fill="#047857"/>
<polygon points="314,212 340,212 350,375 326,375" fill="#047857"/>
<polygon points="206,212 306,212 300,320 212,320" fill="#10b981"/>
<polygon points="246,252 266,252 270,315 256,325 242,315" fill="#fef3c7"/>
<circle cx="248" cy="265" r="4" fill="#f59e0b" opacity="0.8"/>
<circle cx="264" cy="275" r="3" fill="#ef4444" opacity="0.8"/>
<circle cx="254" cy="285" r="5" fill="#3b82f6" opacity="0.7"/>
<circle cx="260" cy="298" r="3" fill="#8b5cf6" opacity="0.8"/>
<polygon points="208,212 256,258 196,310 178,230" fill="#064e3b"/>
<polygon points="304,212 256,258 316,310 334,230" fill="#065f46"/>
<polygon points="212,210 256,234 300,210 290,202 256,220 222,202" fill="#fef9ee"/>
<polygon points="172,218 140,228 118,322 150,330" fill="#059669"/>
<polygon points="140,228 114,234 92,316 118,322" fill="#047857"/>
<polygon points="92,316 120,320 118,336 90,332" fill="#fef9ee"/>
<polygon points="86,330 118,334 115,352 83,347" fill="#f5c87a"/>
<polygon points="28,100 130,95 132,200 30,205" fill="#1f2937"/>
<polygon points="30,100 128,96 127,108 31,112" fill="#374151"/>
<polygon points="38,185 52,185 52,150 38,150" fill="#f59e0b"/>
<polygon points="56,185 70,185 70,130 56,130" fill="#10b981"/>
<polygon points="74,185 88,185 88,160 74,160" fill="#3b82f6"/>
<polygon points="92,185 106,185 106,118 92,118" fill="#f59e0b"/>
<polygon points="110,185 122,185 122,142 110,142" fill="#ef4444"/>
<line x1="32" y1="186" x2="126" y2="184" stroke="#6b7280" stroke-width="1.5"/>
<line x1="130" y1="150" x2="155" y2="290" stroke="#4b5563" stroke-width="5" stroke-linecap="round"/>
<polygon points="340,218 368,228 388,315 358,323" fill="#047857"/>
<polygon points="368,228 394,235 414,310 388,315" fill="#059669"/>
<polygon points="388,315 415,308 418,324 390,331" fill="#fef9ee"/>
<polygon points="404,278 436,266 439,284 406,296" fill="#f5c87a"/>
<polygon points="420,60 436,56 480,260 464,264" fill="#92400e"/>
<polygon points="464,256 480,252 490,278 474,282" fill="#fbbf24"/>
<polygon points="474,278 490,274 495,295 478,299" fill="#f59e0b"/>
<polygon points="478,295 484,295 488,330 480,332" fill="#ef4444"/>
<polygon points="482,310 487,310 490,340 483,342" fill="#3b82f6"/>
<circle cx="486" cy="348" r="5" fill="#ef4444"/>
<circle cx="491" cy="345" r="3" fill="#3b82f6"/>
<circle cx="380" cy="80" r="10" fill="#f59e0b" opacity="0.7"/>
<circle cx="140" cy="90" r="8" fill="#ef4444" opacity="0.6"/>
<circle cx="420" cy="180" r="7" fill="#3b82f6" opacity="0.7"/>
<polygon points="230,174 282,174 286,212 226,212" fill="#f5c87a"/>
<polygon points="192,88 320,88 328,174 186,174" fill="#f8d48e"/>
<polygon points="192,88 216,88 208,174 186,174" fill="#ecc070"/>
<polygon points="296,88 320,88 328,174 306,174" fill="#e0aa50"/>
<polygon points="216,88 296,88 290,120 222,120" fill="#fce4a8"/>
<polygon points="188,88 322,88 318,70 192,70" fill="#1c1c1c"/>
<polygon points="192,70 318,70 324,52 186,56" fill="#2a2a2a"/>
<polygon points="188,88 192,70 172,96 166,122" fill="#1c1c1c"/>
<polygon points="322,88 318,70 338,98 342,125" fill="#111"/>
<polygon points="210,70 218,45 226,70" fill="#1c1c1c"/>
<polygon points="248,68 256,40 264,68" fill="#2a2a2a"/>
<polygon points="286,70 294,46 302,70" fill="#1c1c1c"/>
<polygon points="206,118 228,113 230,120 208,124" fill="#1c1c1c"/>
<polygon points="280,113 302,118 300,124 278,120" fill="#1c1c1c"/>
<polygon points="208,126 227,124 229,136 210,138" fill="#0d0518"/>
<polygon points="280,124 299,126 297,138 278,136" fill="#0d0518"/>
<polygon points="210,127 216,126 217,131 211,132" fill="#fff" opacity="0.8"/>
<polygon points="282,126 288,127 287,132 281,131" fill="#fff" opacity="0.8"/>
<polygon points="246,148 266,148 270,162 256,165 242,162" fill="#e0aa50"/>
<polygon points="218,163 294,161 300,172 256,180 212,174" fill="#c0392b"/>
<polygon points="212,174 300,172 298,180 214,180" fill="#922b21"/>
<polygon points="220,164 290,162 288,172 222,172" fill="#f5e6e6"/>
<rect x="136" y="490" width="240" height="18" rx="9" fill="#059669"/>
<text x="256" y="503" text-anchor="middle" font-family="sans-serif" font-size="11" font-weight="700" fill="#ffffff" letter-spacing="1">HACF · 데이터로 판치는 크리에이터</text>
</svg>
