<svg width="512" height="512" viewBox="0 0 512 512" xmlns="http://www.w3.org/2000/svg">
<ellipse cx="256" cy="478" rx="80" ry="10" fill="#00000012"/>
<polygon points="178,455 214,453 216,468 175,470" fill="#1a1a2e"/>
<polygon points="175,470 216,468 214,476 173,478" fill="#0d0d1a"/>
<polygon points="242,453 278,455 282,476 240,478" fill="#1a1a2e"/>
<polygon points="240,478 282,476 280,484 238,484" fill="#0d0d1a"/>
<polygon points="184,370 210,370 208,455 180,455" fill="#3d2b8a"/>
<polygon points="180,455 208,455 206,468 178,468" fill="#2a1d6e"/>
<polygon points="246,370 272,370 278,455 248,455" fill="#3d2b8a"/>
<polygon points="248,455 278,455 280,468 246,468" fill="#2a1d6e"/>
<polygon points="175,210 338,210 348,374 162,374" fill="#5b3fd4"/>
<polygon points="175,210 200,210 182,374 162,374" fill="#4a2fb8"/>
<polygon points="312,210 338,210 348,374 325,374" fill="#4a2fb8"/>
<polygon points="208,210 304,210 298,318 214,318" fill="#6b4fe4"/>
<polygon points="210,210 256,255 200,308 182,228" fill="#2a1d6e"/>
<polygon points="302,210 256,255 312,308 330,228" fill="#231860"/>
<polygon points="248,250 264,250 268,310 256,320 244,310" fill="#e8e0ff"/>
<polygon points="252,262 260,262 264,308 256,315 248,308" fill="#7c3aed"/>
<polygon points="214,208 256,232 298,208 288,200 256,218 224,200" fill="#f0ebff"/>
<polygon points="175,216 145,225 125,318 156,326" fill="#5b3fd4"/>
<polygon points="145,225 120,230 98,312 125,318" fill="#4a2fb8"/>
<polygon points="98,312 126,316 124,332 96,328" fill="#f0ebff"/>
<polygon points="93,326 128,330 126,348 90,342" fill="#f5c87a"/>
<polygon points="90,340 100,330 106,316 97,322" fill="#f5c87a"/>
<polygon points="100,330 110,320 114,306 105,313" fill="#e8b85a"/>
<polygon points="338,216 364,225 382,312 354,320" fill="#4a2fb8"/>
<polygon points="364,225 388,232 406,308 382,312" fill="#3d2b8a"/>
<polygon points="382,312 408,306 410,322 384,328" fill="#f0ebff"/>
<polygon points="406,295 424,287 430,270 412,276" fill="#f5c87a"/>
<polygon points="424,287 434,278 438,261 427,268" fill="#e8b85a"/>
<polygon points="434,276 443,266 446,250 436,256" fill="#f5c87a"/>
<polygon points="38,130 102,124 104,168 40,174" fill="#1e1060"/>
<polygon points="40,130 100,125 99,135 41,140" fill="#7c3aed"/>
<polygon points="42,142 96,137 95,148 43,153" fill="#4c1d95" opacity="0.8"/>
<polygon points="42,152 94,147 93,158 43,163" fill="#4c1d95" opacity="0.5"/>
<line x1="102" y1="150" x2="160" y2="215" stroke="#7c3aed" stroke-width="1.5" stroke-dasharray="4,3" opacity="0.7"/>
<polygon points="172,28 340,22 342,70 174,76" fill="#1e1060"/>
<polygon points="174,28 338,23 337,36 175,41" fill="#7c3aed"/>
<polygon points="176,44 334,39 333,52 177,57" fill="#4c1d95" opacity="0.8"/>
<polygon points="176,56 332,51 331,64 177,69" fill="#4c1d95" opacity="0.5"/>
<line x1="256" y1="76" x2="256" y2="125" stroke="#7c3aed" stroke-width="1.5" stroke-dasharray="4,3" opacity="0.7"/>
<polygon points="408,130 472,124 474,168 410,174" fill="#1e1060"/>
<polygon points="410,130 470,125 469,135 411,140" fill="#7c3aed"/>
<polygon points="412,142 466,137 465,148 413,153" fill="#4c1d95" opacity="0.8"/>
<polygon points="412,152 464,147 463,158 413,163" fill="#4c1d95" opacity="0.5"/>
<line x1="410" y1="150" x2="352" y2="216" stroke="#7c3aed" stroke-width="1.5" stroke-dasharray="4,3" opacity="0.7"/>
<polygon points="228,172 284,172 288,210 224,210" fill="#f5c87a"/>
<polygon points="238,172 274,172 276,192 236,192" fill="#e8b85a"/>
<polygon points="192,88 320,88 328,172 184,172" fill="#f8d48e"/>
<polygon points="192,88 216,88 208,172 184,172" fill="#ecc070"/>
<polygon points="296,88 320,88 328,172 306,172" fill="#e0aa50"/>
<polygon points="216,88 296,88 290,120 222,120" fill="#fce4a8"/>
<polygon points="188,88 320,88 314,70 194,70" fill="#1a0a2e"/>
<polygon points="194,70 314,70 308,54 200,54" fill="#2d1054"/>
<polygon points="200,54 308,54 302,40 206,40" fill="#1a0a2e"/>
<polygon points="206,40 302,40 296,30 212,30" fill="#0d0518"/>
<polygon points="188,88 200,54 180,100 174,130" fill="#1a0a2e"/>
<polygon points="320,88 308,54 328,102 334,132" fill="#0d0518"/>
<polygon points="210,118 230,114 232,121 212,124" fill="#1a0a2e"/>
<polygon points="280,114 300,118 298,124 278,121" fill="#1a0a2e"/>
<polygon points="213,126 229,124 231,138 215,140" fill="#0d0518"/>
<polygon points="280,124 296,126 294,138 278,136" fill="#0d0518"/>
<polygon points="215,127 221,126 222,131 216,132" fill="#fff" opacity="0.8"/>
<polygon points="282,126 288,127 287,132 281,131" fill="#fff" opacity="0.8"/>
<polygon points="246,148 266,148 270,162 256,165 242,162" fill="#e0aa50"/>
<polygon points="224,162 288,160 292,168 256,174 220,170" fill="#c0392b"/>
<polygon points="220,170 292,168 290,175 222,175" fill="#922b21"/>
<polygon points="226,163 286,161 284,168 228,168" fill="#f5e6e6"/>
<rect x="156" y="490" width="200" height="18" rx="9" fill="#5b3fd4"/>
<text x="256" y="503" text-anchor="middle" font-family="sans-serif" font-size="11" font-weight="700" fill="#ffffff" letter-spacing="1">HALF · AI 시대 지휘관</text>
</svg>
