<svg width="512" height="512" viewBox="0 0 512 512" xmlns="http://www.w3.org/2000/svg">
<rect width="512" height="512" fill="#f8f7f4"/>
<ellipse cx="256" cy="478" rx="75" ry="10" fill="#00000012"/>
<polygon points="175,455 210,453 212,470 172,472" fill="#111827"/>
<polygon points="172,472 212,470 210,478 170,480" fill="#060a10"/>
<polygon points="244,453 280,455 284,478 242,480" fill="#111827"/>
<polygon points="242,480 284,478 282,486 240,486" fill="#060a10"/>
<polygon points="182,372 208,372 206,455 178,455" fill="#1e3a5f"/>
<polygon points="178,455 206,455 204,470 176,470" fill="#152a45"/>
<polygon points="248,372 274,372 280,455 250,455" fill="#1e3a5f"/>
<polygon points="250,455 280,455 282,470 248,470" fill="#152a45"/>
<polygon points="172,212 340,212 350,375 160,375" fill="#1e3a5f"/>
<polygon points="172,212 198,212 178,375 160,375" fill="#152a45"/>
<polygon points="314,212 340,212 350,375 326,375" fill="#152a45"/>
<polygon points="206,212 306,212 300,320 212,320" fill="#254b78"/>
<polygon points="208,212 256,258 196,310 178,230" fill="#0a1628"/>
<polygon points="304,212 256,258 316,310 334,230" fill="#081020"/>
<polygon points="246,252 266,252 270,312 256,322 242,312" fill="#e8f4ff"/>
<polygon points="250,264 262,264 266,310 256,318 246,310" fill="#9ca3af"/>
<polygon points="212,210 256,234 300,210 290,202 256,220 222,202" fill="#f0f8ff"/>
<polygon points="172,218 140,228 118,322 150,330" fill="#1e3a5f"/>
<polygon points="140,228 114,234 92,316 118,322" fill="#152a45"/>
<polygon points="92,316 120,320 118,336 90,332" fill="#f0f8ff"/>
<polygon points="88,330 118,334 115,352 85,347" fill="#f5c87a"/>
<circle cx="72" cy="362" r="28" fill="none" stroke="#9ca3af" stroke-width="6"/>
<circle cx="72" cy="362" r="22" fill="#dbeafe" opacity="0.6"/>
<line x1="91" y1="381" x2="108" y2="398" stroke="#6b7280" stroke-width="7" stroke-linecap="round"/>
<polygon points="86,330 118,334 115,352 83,347" fill="#f5c87a"/>
<polygon points="340,218 368,228 388,315 358,323" fill="#152a45"/>
<polygon points="368,228 394,235 414,310 388,315" fill="#1e3a5f"/>
<polygon points="388,315 415,308 418,324 390,331" fill="#f0f8ff"/>
<polygon points="408,280 448,265 456,285 416,300" fill="#fef3c7"/>
<polygon points="412,283 416,282 418,288 414,289" fill="#92400e"/>
<polygon points="420,280 424,279 426,285 422,286" fill="#92400e"/>
<polygon points="428,277 432,276 434,282 430,283" fill="#92400e"/>
<polygon points="436,274 440,273 442,279 438,280" fill="#92400e"/>
<polygon points="404,278 435,266 438,284 406,296" fill="#f5c87a"/>
<polygon points="118,80 388,72 392,170 120,178" fill="#dbeafe"/>
<polygon points="120,80 386,73 385,86 121,93" fill="#93c5fd"/>
<polygon points="124,96 380,89 378,102 125,109" fill="#3b82f6" opacity="0.4"/>
<polygon points="124,108 370,101 368,112 125,119" fill="#3b82f6" opacity="0.3"/>
<line x1="200" y1="80" x2="198" y2="178" stroke="#3b82f6" stroke-width="0.8" opacity="0.5"/>
<line x1="280" y1="78" x2="278" y2="176" stroke="#3b82f6" stroke-width="0.8" opacity="0.5"/>
<line x1="120" y1="125" x2="390" y2="118" stroke="#3b82f6" stroke-width="0.8" opacity="0.5"/>
<line x1="254" y1="178" x2="254" y2="212" stroke="#3b82f6" stroke-width="1.5" stroke-dasharray="4,3" opacity="0.6"/>
<polygon points="230,174 282,174 286,212 226,212" fill="#f5c87a"/>
<polygon points="240,174 272,174 274,194 238,194" fill="#e8b85a"/>
<polygon points="194,90 318,90 325,174 188,174" fill="#f8d48e"/>
<polygon points="194,90 218,90 210,174 188,174" fill="#ecc070"/>
<polygon points="294,90 318,90 325,174 304,174" fill="#e0aa50"/>
<polygon points="218,90 294,90 288,122 224,122" fill="#fce4a8"/>
<polygon points="190,90 318,90 314,74 194,74" fill="#1c1c1c"/>
<polygon points="194,74 314,74 310,60 198,60" fill="#2a2a2a"/>
<polygon points="198,60 310,60 306,48 202,48" fill="#1c1c1c"/>
<polygon points="190,90 200,60 182,102 178,128" fill="#1c1c1c"/>
<polygon points="318,90 308,60 326,104 330,130" fill="#111"/>
<polygon points="208,120 230,115 233,122 210,126" fill="#1c1c1c"/>
<polygon points="278,115 300,120 298,126 276,122" fill="#1c1c1c"/>
<polygon points="211,128 229,126 231,136 213,138" fill="#0d0518"/>
<polygon points="278,126 296,128 294,138 276,136" fill="#0d0518"/>
<polygon points="213,129 219,128 220,133 214,134" fill="#fff" opacity="0.7"/>
<polygon points="280,128 286,129 285,134 279,133" fill="#fff" opacity="0.7"/>
<polygon points="248,150 264,150 267,163 256,166 245,163" fill="#e0aa50"/>
<polygon points="228,170 284,172 280,178 256,176 232,176" fill="#c0392b"/>
<polygon points="232,176 280,178 278,182 234,182" fill="#922b21"/>
<rect x="152" y="490" width="208" height="18" rx="9" fill="#1e3a5f"/>
<text x="256" y="503" text-anchor="middle" font-family="sans-serif" font-size="11" font-weight="700" fill="#ffffff" letter-spacing="1">HALP · 완벽주의 AI 설계자</text>
</svg>
