<svg width="512" height="512" viewBox="0 0 512 512" xmlns="http://www.w3.org/2000/svg">
<!-- Background floating paint splatter circles -->
<circle cx="60" cy="80" r="9" fill="#ef4444" opacity="0.5"/>
<circle cx="90" cy="40" r="6" fill="#3b82f6" opacity="0.4"/>
<circle cx="40" cy="130" r="5" fill="#22c55e" opacity="0.4"/>
<circle cx="450" cy="60" r="8" fill="#eab308" opacity="0.5"/>
<circle cx="480" cy="100" r="5" fill="#ef4444" opacity="0.4"/>
<circle cx="430" cy="130" r="7" fill="#3b82f6" opacity="0.4"/>
<circle cx="120" cy="55" r="4" fill="#a855f7" opacity="0.4"/>
<circle cx="395" cy="45" r="5" fill="#22c55e" opacity="0.4"/>
<circle cx="70" cy="200" r="6" fill="#f97316" opacity="0.3"/>
<circle cx="460" cy="190" r="4" fill="#ec4899" opacity="0.4"/>
<circle cx="30" cy="170" r="3" fill="#eab308" opacity="0.4"/>
<circle cx="490" cy="150" r="5" fill="#22c55e" opacity="0.3"/>
<!-- Floating art frames top area -->
<rect x="22" y="45" width="54" height="44" rx="2" fill="none" stroke="#d97706" stroke-width="2" opacity="0.4"/>
<rect x="436" y="38" width="52" height="50" rx="2" fill="none" stroke="#ea580c" stroke-width="2" opacity="0.4"/>
<!-- Shadow -->
<ellipse cx="256" cy="478" rx="80" ry="10" fill="#00000012"/>
<!-- Shoes -->
<polygon points="178,455 214,453 216,468 175,470" fill="#92400e"/>
<polygon points="175,470 216,468 214,476 173,478" fill="#6b2d06"/>
<polygon points="242,453 278,455 282,476 240,478" fill="#92400e"/>
<polygon points="240,478 282,476 280,484 238,484" fill="#6b2d06"/>
<!-- Legs -->
<polygon points="184,370 210,370 208,455 180,455" fill="#d97706"/>
<polygon points="180,455 208,455 206,468 178,468" fill="#b45309"/>
<polygon points="246,370 272,370 278,455 248,455" fill="#d97706"/>
<polygon points="248,455 278,455 280,468 246,468" fill="#b45309"/>
<!-- Body main -->
<polygon points="175,210 338,210 348,374 162,374" fill="#d97706"/>
<polygon points="175,210 200,210 182,374 162,374" fill="#b45309"/>
<polygon points="312,210 338,210 348,374 325,374" fill="#b45309"/>
<polygon points="208,210 304,210 298,318 214,318" fill="#f59e0b"/>
<!-- Body lapels -->
<polygon points="210,210 256,255 200,308 182,228" fill="#92400e"/>
<polygon points="302,210 256,255 312,308 330,228" fill="#7c3408"/>
<!-- Chest detail -->
<polygon points="248,250 264,250 268,310 256,320 244,310" fill="#fef3c7"/>
<polygon points="252,262 260,262 264,308 256,315 248,308" fill="#fbbf24"/>
<!-- Collar -->
<polygon points="214,208 256,232 298,208 288,200 256,218 224,200" fill="#fffbeb"/>
<!-- Left arm -->
<polygon points="175,216 145,225 125,318 156,326" fill="#d97706"/>
<polygon points="145,225 120,230 98,312 125,318" fill="#b45309"/>
<polygon points="98,312 126,316 124,332 96,328" fill="#fffbeb"/>
<polygon points="93,326 128,330 126,348 90,342" fill="#f5c87a"/>
<!-- Right arm - raised for paintbrush -->
<polygon points="338,216 368,200 395,275 358,290" fill="#b45309"/>
<polygon points="368,200 398,188 420,260 394,272" fill="#d97706"/>
<polygon points="396,185 422,177 444,248 418,258" fill="#f59e0b"/>
<!-- Paintbrush prop - long vertical in right hand -->
<polygon points="406,148 414,148 418,310 410,312" fill="#92400e"/>
<polygon points="408,148 412,148 410,158 408,158" fill="#f0f0f0"/>
<polygon points="407,155 413,155 415,172 405,172" fill="#e5e7eb"/>
<!-- Paint drips at bottom of brush -->
<circle cx="409" cy="320" r="5" fill="#ef4444" opacity="0.8"/>
<circle cx="415" cy="328" r="4" fill="#3b82f6" opacity="0.7"/>
<circle cx="404" cy="330" r="3" fill="#22c55e" opacity="0.8"/>
<circle cx="418" cy="338" r="4" fill="#eab308" opacity="0.7"/>
<circle cx="400" cy="342" r="3" fill="#a855f7" opacity="0.6"/>
<!-- Neck -->
<polygon points="228,172 284,172 288,210 224,210" fill="#f5c87a"/>
<polygon points="238,172 274,172 276,192 236,192" fill="#e8b85a"/>
<!-- Head -->
<polygon points="192,88 320,88 328,172 184,172" fill="#f8d48e"/>
<polygon points="192,88 216,88 208,172 184,172" fill="#ecc070"/>
<polygon points="296,88 320,88 328,172 306,172" fill="#e0aa50"/>
<polygon points="216,88 296,88 290,120 222,120" fill="#fce4a8"/>
<!-- Hair wild/asymmetric - base -->
<polygon points="188,88 320,88 314,70 194,70" fill="#1c1c1c"/>
<polygon points="194,70 314,70 308,54 200,54" fill="#2a2a2a"/>
<polygon points="200,54 308,54 302,40 206,40" fill="#1c1c1c"/>
<polygon points="206,40 302,40 296,30 212,30" fill="#111"/>
<polygon points="188,88 200,54 180,100 174,130" fill="#1c1c1c"/>
<polygon points="320,88 308,54 328,102 334,132" fill="#111"/>
<!-- Wild hair extra polygons right side sticking out -->
<polygon points="318,88 345,75 355,92 330,105" fill="#1c1c1c"/>
<polygon points="342,72 360,58 368,76 350,90" fill="#2a2a2a"/>
<polygon points="355,60 372,48 378,66 362,78" fill="#1c1c1c"/>
<polygon points="320,60 340,42 348,58 328,75" fill="#111"/>
<!-- Eyes -->
<polygon points="210,118 230,114 232,121 212,124" fill="#1c1c1c"/>
<polygon points="280,114 300,118 298,124 278,121" fill="#1c1c1c"/>
<polygon points="213,126 229,124 231,138 215,140" fill="#111"/>
<polygon points="280,124 296,126 294,138 278,136" fill="#111"/>
<polygon points="215,127 221,126 222,131 216,132" fill="#fff" opacity="0.8"/>
<polygon points="282,126 288,127 287,132 281,131" fill="#fff" opacity="0.8"/>
<!-- Nose -->
<polygon points="246,148 266,148 270,162 256,165 242,162" fill="#e0aa50"/>
<!-- Mouth expressive -->
<polygon points="222,163 290,161 294,170 256,176 218,172" fill="#c0392b"/>
<polygon points="218,172 294,170 292,178 220,178" fill="#922b21"/>
<polygon points="224,164 288,162 286,170 226,170" fill="#f5e6e6"/>
<!-- Label -->
<rect x="152" y="490" width="208" height="18" rx="9" fill="#d97706"/>
<text x="256" y="503" text-anchor="middle" font-family="sans-serif" font-size="11" font-weight="700" fill="#ffffff" letter-spacing="1">HSCF · 감성 독립군</text>
</svg>
