<svg width="512" height="512" viewBox="0 0 512 512" xmlns="http://www.w3.org/2000/svg">
<!-- Background floating musical notes and picture frames -->
<polygon points="50,60 58,60 54,70 46,70 50,60" fill="#be185d" opacity="0.3"/>
<polygon points="56,55 60,55 60,65" fill="#be185d" opacity="0.3"/>
<polygon points="440,55 448,55 444,65 436,65 440,55" fill="#be185d" opacity="0.3"/>
<polygon points="446,50 450,50 450,60" fill="#be185d" opacity="0.3"/>
<rect x="28" y="38" width="44" height="38" rx="2" fill="none" stroke="#f9a8d4" stroke-width="2" opacity="0.5"/>
<rect x="438" y="35" width="44" height="40" rx="2" fill="none" stroke="#f9a8d4" stroke-width="2" opacity="0.5"/>
<polygon points="75,40 82,40 79,50 72,50 75,40" fill="#be185d" opacity="0.25"/>
<polygon points="405,42 412,42 409,52 402,52 405,42" fill="#be185d" opacity="0.25"/>
<circle cx="88" cy="78" r="3" fill="#f9a8d4" opacity="0.5"/>
<circle cx="425" cy="80" r="3" fill="#f9a8d4" opacity="0.5"/>
<!-- Shadow -->
<ellipse cx="256" cy="478" rx="80" ry="10" fill="#00000012"/>
<!-- Shoes -->
<polygon points="178,455 214,453 216,468 175,470" fill="#9d174d"/>
<polygon points="175,470 216,468 214,476 173,478" fill="#7a1240"/>
<polygon points="242,453 278,455 282,476 240,478" fill="#9d174d"/>
<polygon points="240,478 282,476 280,484 238,484" fill="#7a1240"/>
<!-- Legs -->
<polygon points="184,370 210,370 208,455 180,455" fill="#be185d"/>
<polygon points="180,455 208,455 206,468 178,468" fill="#9d174d"/>
<polygon points="246,370 272,370 278,455 248,455" fill="#be185d"/>
<polygon points="248,455 278,455 280,468 246,468" fill="#9d174d"/>
<!-- Body main -->
<polygon points="175,210 338,210 348,374 162,374" fill="#be185d"/>
<polygon points="175,210 200,210 182,374 162,374" fill="#9d174d"/>
<polygon points="312,210 338,210 348,374 325,374" fill="#9d174d"/>
<polygon points="208,210 304,210 298,318 214,318" fill="#ec4899"/>
<!-- Body lapels -->
<polygon points="210,210 256,255 200,308 182,228" fill="#831843"/>
<polygon points="302,210 256,255 312,308 330,228" fill="#6d1536"/>
<!-- Chest detail pink -->
<polygon points="248,250 264,250 268,310 256,320 244,310" fill="#fce7f3"/>
<polygon points="252,262 260,262 264,308 256,315 248,308" fill="#f9a8d4"/>
<!-- Collar -->
<polygon points="214,208 256,232 298,208 288,200 256,218 224,200" fill="#fdf2f8"/>
<!-- Left arm -->
<polygon points="175,216 145,225 125,318 156,326" fill="#be185d"/>
<polygon points="145,225 120,230 98,312 125,318" fill="#9d174d"/>
<polygon points="98,312 126,316 124,332 96,328" fill="#fdf2f8"/>
<polygon points="93,326 128,330 126,348 90,342" fill="#f5c87a"/>
<!-- Right arm - canvas frame held -->
<polygon points="338,216 364,225 382,312 354,320" fill="#9d174d"/>
<polygon points="364,225 388,232 406,308 382,312" fill="#be185d"/>
<polygon points="382,312 408,306 410,322 384,328" fill="#fdf2f8"/>
<polygon points="406,295 424,287 430,270 412,276" fill="#f5c87a"/>
<!-- Canvas frame being held -->
<rect x="332" y="198" width="80" height="70" rx="2" fill="none" stroke="#9d174d" stroke-width="3"/>
<rect x="336" y="202" width="72" height="62" rx="1" fill="#fce7f3" opacity="0.6"/>
<circle cx="358" cy="222" r="8" fill="#f9a8d4" opacity="0.7"/>
<polygon points="340,250 360,230 378,250 360,240" fill="#be185d" opacity="0.5"/>
<polygon points="355,245 375,228 392,248" fill="#ec4899" opacity="0.4"/>
<!-- Headphones circles on sides of head -->
<circle cx="174" cy="122" r="18" fill="#9d174d" stroke="#be185d" stroke-width="3"/>
<circle cx="174" cy="122" r="11" fill="#831843"/>
<circle cx="174" cy="122" r="5" fill="#f9a8d4" opacity="0.6"/>
<circle cx="338" cy="122" r="18" fill="#9d174d" stroke="#be185d" stroke-width="3"/>
<circle cx="338" cy="122" r="11" fill="#831843"/>
<circle cx="338" cy="122" r="5" fill="#f9a8d4" opacity="0.6"/>
<!-- Headphone band over top of head -->
<polygon points="174,104 338,104 338,112 174,112" fill="#9d174d" opacity="0.7"/>
<polygon points="174,108 338,108 338,112 174,112" fill="#831843"/>
<!-- Neck -->
<polygon points="228,172 284,172 288,210 224,210" fill="#f5c87a"/>
<polygon points="238,172 274,172 276,192 236,192" fill="#e8b85a"/>
<!-- Head -->
<polygon points="192,88 320,88 328,172 184,172" fill="#f8d48e"/>
<polygon points="192,88 216,88 208,172 184,172" fill="#ecc070"/>
<polygon points="296,88 320,88 328,172 306,172" fill="#e0aa50"/>
<polygon points="216,88 296,88 290,120 222,120" fill="#fce4a8"/>
<!-- Hair dark with slight puff one side -->
<polygon points="188,88 320,88 314,70 194,70" fill="#1a1a2e"/>
<polygon points="194,70 314,70 308,54 200,54" fill="#2a2a40"/>
<polygon points="200,54 308,54 302,40 206,40" fill="#1a1a2e"/>
<polygon points="206,40 302,40 296,30 212,30" fill="#0d0d1e"/>
<polygon points="188,88 200,54 180,100 174,130" fill="#1a1a2e"/>
<polygon points="320,88 308,54 328,102 334,132" fill="#0d0d1e"/>
<!-- Slight puff left side -->
<polygon points="184,88 192,70 174,78 168,96" fill="#1a1a2e"/>
<polygon points="174,78 164,68 160,84 170,94" fill="#2a2a40"/>
<!-- Eyes -->
<polygon points="210,118 230,114 232,121 212,124" fill="#1a1a2e"/>
<polygon points="280,114 300,118 298,124 278,121" fill="#1a1a2e"/>
<polygon points="213,126 229,124 231,138 215,140" fill="#0d0d1e"/>
<polygon points="280,124 296,126 294,138 278,136" fill="#0d0d1e"/>
<polygon points="215,127 221,126 222,131 216,132" fill="#fff" opacity="0.8"/>
<polygon points="282,126 288,127 287,132 281,131" fill="#fff" opacity="0.8"/>
<!-- Nose -->
<polygon points="246,148 266,148 270,162 256,165 242,162" fill="#e0aa50"/>
<!-- Mouth content -->
<polygon points="226,163 286,161 289,169 256,174 223,170" fill="#c0392b"/>
<polygon points="223,170 289,168 287,175 225,175" fill="#922b21"/>
<polygon points="228,164 284,162 282,169 230,169" fill="#f5e6e6"/>
<!-- Label -->
<rect x="148" y="490" width="216" height="18" rx="9" fill="#be185d"/>
<text x="256" y="503" text-anchor="middle" font-family="sans-serif" font-size="11" font-weight="700" fill="#ffffff" letter-spacing="1">HSCP · 나만의 세계 완성형</text>
</svg>
