<svg width="512" height="512" viewBox="0 0 512 512" xmlns="http://www.w3.org/2000/svg">
<rect width="512" height="512" fill="#f1f5f9"/>
<!-- Background gear circle decorations top -->
<circle cx="80" cy="70" r="36" fill="none" stroke="#94a3b8" stroke-width="3" opacity="0.35"/>
<circle cx="80" cy="70" r="28" fill="none" stroke="#64748b" stroke-width="1.5" opacity="0.25"/>
<circle cx="432" cy="70" r="36" fill="none" stroke="#94a3b8" stroke-width="3" opacity="0.35"/>
<circle cx="432" cy="70" r="28" fill="none" stroke="#64748b" stroke-width="1.5" opacity="0.25"/>
<!-- Gear teeth left -->
<polygon points="76,34 84,34 84,40 76,40" fill="#94a3b8" opacity="0.4"/>
<polygon points="44,66 44,74 50,74 50,66" fill="#94a3b8" opacity="0.4"/>
<polygon points="110,66 110,74 116,74 116,66" fill="#94a3b8" opacity="0.4"/>
<polygon points="76,100 84,100 84,106 76,106" fill="#94a3b8" opacity="0.4"/>
<!-- Gear teeth right -->
<polygon points="428,34 436,34 436,40 428,40" fill="#94a3b8" opacity="0.4"/>
<polygon points="396,66 396,74 402,74 402,66" fill="#94a3b8" opacity="0.4"/>
<polygon points="462,66 462,74 468,74 462,66" fill="#94a3b8" opacity="0.4"/>
<polygon points="428,100 436,100 436,106 428,106" fill="#94a3b8" opacity="0.4"/>
<!-- Shadow -->
<ellipse cx="256" cy="478" rx="80" ry="10" fill="#00000012"/>
<!-- Shoes very dark -->
<polygon points="178,455 214,453 216,468 175,470" fill="#1e293b"/>
<polygon points="175,470 216,468 214,476 173,478" fill="#0f172a"/>
<polygon points="242,453 278,455 282,476 240,478" fill="#1e293b"/>
<polygon points="240,478 282,476 280,484 238,484" fill="#0f172a"/>
<!-- Legs -->
<polygon points="184,370 210,370 208,455 180,455" fill="#475569"/>
<polygon points="180,455 208,455 206,468 178,468" fill="#334155"/>
<polygon points="246,370 272,370 278,455 248,455" fill="#475569"/>
<polygon points="248,455 278,455 280,468 246,468" fill="#334155"/>
<!-- Body main -->
<polygon points="175,210 338,210 348,374 162,374" fill="#475569"/>
<polygon points="175,210 200,210 182,374 162,374" fill="#334155"/>
<polygon points="312,210 338,210 348,374 325,374" fill="#334155"/>
<polygon points="208,210 304,210 298,318 214,318" fill="#64748b"/>
<!-- Body lapels -->
<polygon points="210,210 256,255 200,308 182,228" fill="#1e293b"/>
<polygon points="302,210 256,255 312,308 330,228" fill="#1a2536"/>
<!-- Chest detail -->
<polygon points="248,250 264,250 268,310 256,320 244,310" fill="#e2e8f0"/>
<polygon points="252,262 260,262 264,308 256,315 248,308" fill="#94a3b8"/>
<!-- Collar -->
<polygon points="214,208 256,232 298,208 288,200 256,218 224,200" fill="#f1f5f9"/>
<!-- Left arm - wrench prop -->
<polygon points="175,216 145,225 125,318 156,326" fill="#475569"/>
<polygon points="145,225 120,230 98,312 125,318" fill="#334155"/>
<polygon points="98,312 126,316 124,332 96,328" fill="#f1f5f9"/>
<polygon points="93,326 128,330 126,348 90,342" fill="#f5c87a"/>
<!-- Wrench in left hand area -->
<polygon points="52,270 72,265 80,290 60,295" fill="#6b7280"/>
<polygon points="56,268 76,263 79,273 59,278" fill="#9ca3af"/>
<polygon points="50,280 58,278 62,290 54,292" fill="#4b5563"/>
<polygon points="70,285 82,282 86,295 74,298" fill="#4b5563"/>
<circle cx="62" cy="260" r="8" fill="none" stroke="#6b7280" stroke-width="4"/>
<circle cx="78" cy="296" r="6" fill="none" stroke="#6b7280" stroke-width="3"/>
<!-- Right arm -->
<polygon points="338,216 364,225 382,312 354,320" fill="#334155"/>
<polygon points="364,225 388,232 406,308 382,312" fill="#475569"/>
<polygon points="382,312 408,306 410,322 384,328" fill="#f1f5f9"/>
<polygon points="406,295 424,287 430,270 412,276" fill="#f5c87a"/>
<polygon points="424,287 434,278 438,261 427,268" fill="#e8b85a"/>
<!-- Small robot on right palm -->
<rect x="388" y="308" width="24" height="20" rx="2" fill="#475569" stroke="#6b7280" stroke-width="1.5"/>
<circle cx="394" cy="314" r="3" fill="#60a5fa"/>
<circle cx="406" cy="314" r="3" fill="#60a5fa"/>
<polygon points="390,320 410,320 408,326 392,326" fill="#334155"/>
<polygon points="386,308 390,304 410,304 414,308" fill="#64748b"/>
<!-- Neck -->
<polygon points="228,172 284,172 288,210 224,210" fill="#f5c87a"/>
<polygon points="238,172 274,172 276,192 236,192" fill="#e8b85a"/>
<!-- Head -->
<polygon points="192,88 320,88 328,172 184,172" fill="#f8d48e"/>
<polygon points="192,88 216,88 208,172 184,172" fill="#ecc070"/>
<polygon points="296,88 320,88 328,172 306,172" fill="#e0aa50"/>
<polygon points="216,88 296,88 290,120 222,120" fill="#fce4a8"/>
<!-- Hair very dark -->
<polygon points="188,88 320,88 314,70 194,70" fill="#111827"/>
<polygon points="194,70 314,70 308,54 200,54" fill="#1f2937"/>
<polygon points="200,54 308,54 302,40 206,40" fill="#111827"/>
<polygon points="206,40 302,40 296,30 212,30" fill="#060c18"/>
<polygon points="188,88 200,54 180,100 174,130" fill="#111827"/>
<polygon points="320,88 308,54 328,102 334,132" fill="#060c18"/>
<!-- Eyes -->
<polygon points="210,118 230,114 232,121 212,124" fill="#111827"/>
<polygon points="280,114 300,118 298,124 278,121" fill="#111827"/>
<polygon points="213,126 229,124 231,138 215,140" fill="#060c18"/>
<polygon points="280,124 296,126 294,138 278,136" fill="#060c18"/>
<polygon points="215,127 221,126 222,131 216,132" fill="#fff" opacity="0.8"/>
<polygon points="282,126 288,127 287,132 281,131" fill="#fff" opacity="0.8"/>
<!-- Nose -->
<polygon points="246,148 266,148 270,162 256,165 242,162" fill="#e0aa50"/>
<!-- Mouth -->
<polygon points="224,162 288,160 292,168 256,174 220,170" fill="#c0392b"/>
<polygon points="220,170 292,168 290,175 222,175" fill="#922b21"/>
<polygon points="226,163 286,161 284,168 228,168" fill="#f5e6e6"/>
<!-- Label -->
<rect x="150" y="490" width="212" height="18" rx="9" fill="#475569"/>
<text x="256" y="503" text-anchor="middle" font-family="sans-serif" font-size="11" font-weight="700" fill="#ffffff" letter-spacing="1">HSLF · 조용한 논리 장인</text>
</svg>
