<svg width="512" height="512" viewBox="0 0 512 512" xmlns="http://www.w3.org/2000/svg">
<rect width="512" height="512" fill="#f0fdf4"/>
<!-- Background diagonal strategy shapes -->
<polygon points="0,80 60,0 80,0 20,80" fill="#166534" opacity="0.08"/>
<polygon points="440,0 512,0 512,80 452,80" fill="#365314" opacity="0.08"/>
<polygon points="0,180 40,120 60,120 20,180" fill="#14532d" opacity="0.07"/>
<polygon points="460,120 490,120 512,160 480,160" fill="#166534" opacity="0.07"/>
<polygon points="0,260 30,220 50,220 20,260" fill="#365314" opacity="0.06"/>
<!-- Shadow -->
<ellipse cx="256" cy="478" rx="80" ry="10" fill="#00000012"/>
<!-- Shoes dark green -->
<polygon points="178,455 214,453 216,468 175,470" fill="#14532d"/>
<polygon points="175,470 216,468 214,476 173,478" fill="#0a3d20"/>
<polygon points="242,453 278,455 282,476 240,478" fill="#14532d"/>
<polygon points="240,478 282,476 280,484 238,484" fill="#0a3d20"/>
<!-- Legs long coat style -->
<polygon points="184,370 210,370 208,455 180,455" fill="#166534"/>
<polygon points="180,455 208,455 206,468 178,468" fill="#14532d"/>
<polygon points="246,370 272,370 278,455 248,455" fill="#166534"/>
<polygon points="248,455 278,455 280,468 246,468" fill="#14532d"/>
<!-- Body long coat - goes lower, more vertical -->
<polygon points="170,210 342,210 355,390 155,390" fill="#166534"/>
<polygon points="170,210 196,210 176,390 155,390" fill="#14532d"/>
<polygon points="316,210 342,210 355,390 330,390" fill="#14532d"/>
<polygon points="205,210 307,210 302,325 210,325" fill="#1a7a40"/>
<!-- Coat side flaps -->
<polygon points="155,300 176,295 172,390 150,390" fill="#0f4a26"/>
<polygon points="330,295 355,300 362,390 336,390" fill="#0f4a26"/>
<!-- Coat lapels -->
<polygon points="208,210 256,260 196,315 178,232" fill="#0f4a26"/>
<polygon points="304,210 256,260 316,315 334,232" fill="#0d3d20"/>
<!-- Chest button line -->
<polygon points="252,255 260,255 264,315 256,322 248,315" fill="#d1fae5"/>
<polygon points="253,265 259,265 262,315 256,320 250,315" fill="#6ee7b7"/>
<!-- Collar -->
<polygon points="214,208 256,235 298,208 288,200 256,220 224,200" fill="#f0fdf4"/>
<!-- Left arm -->
<polygon points="175,216 145,225 125,318 156,326" fill="#166534"/>
<polygon points="145,225 120,230 98,312 125,318" fill="#14532d"/>
<polygon points="98,312 126,316 124,332 96,328" fill="#f0fdf4"/>
<polygon points="93,326 128,330 126,348 90,342" fill="#f5c87a"/>
<!-- Right arm raised (chess queen) -->
<polygon points="338,216 370,205 395,280 358,290" fill="#14532d"/>
<polygon points="370,205 398,198 418,268 395,278" fill="#166534"/>
<polygon points="398,198 420,192 440,255 418,264" fill="#1a7a40"/>
<!-- Chess queen prop right upper -->
<polygon points="392,100 400,100 402,130 390,130" fill="#f0fdf4"/>
<polygon points="388,96 404,96 406,104 386,104" fill="#f0fdf4"/>
<polygon points="390,80 400,80 402,98 388,98" fill="#e2e8f0"/>
<polygon points="386,76 406,76 408,82 384,82" fill="#94a3b8"/>
<polygon points="390,68 400,68 402,78 388,78" fill="#f0fdf4"/>
<polygon points="388,62 402,62 404,70 386,70" fill="#e2e8f0"/>
<polygon points="392,56 398,56 400,64 390,64" fill="#f0fdf4"/>
<polygon points="390,50 400,50 400,58 390,58" fill="#d1d5db"/>
<!-- Floating chessboard at waist -->
<rect x="338" y="298" width="56" height="56" rx="2" fill="#1a1a2e" stroke="#4b5563" stroke-width="1.5"/>
<polygon points="338,298 352,298 352,312 338,312" fill="#f0fdf4" opacity="0.9"/>
<polygon points="352,298 366,298 366,312 352,312" fill="#1a1a2e"/>
<polygon points="366,298 380,298 380,312 366,312" fill="#f0fdf4" opacity="0.9"/>
<polygon points="380,298 394,298 394,312 380,312" fill="#1a1a2e"/>
<polygon points="338,312 352,312 352,326 338,326" fill="#1a1a2e"/>
<polygon points="352,312 366,312 366,326 352,326" fill="#f0fdf4" opacity="0.9"/>
<polygon points="366,312 380,312 380,326 366,326" fill="#1a1a2e"/>
<polygon points="380,312 394,312 394,326 380,326" fill="#f0fdf4" opacity="0.9"/>
<polygon points="338,326 352,326 352,340 338,340" fill="#f0fdf4" opacity="0.9"/>
<polygon points="352,326 366,326 366,340 352,340" fill="#1a1a2e"/>
<polygon points="366,326 380,326 380,340 366,340" fill="#f0fdf4" opacity="0.9"/>
<polygon points="380,326 394,326 394,340 380,340" fill="#1a1a2e"/>
<polygon points="338,340 352,340 352,354 338,354" fill="#1a1a2e"/>
<polygon points="352,340 366,340 366,354 352,354" fill="#f0fdf4" opacity="0.9"/>
<polygon points="366,340 380,340 380,354 366,354" fill="#1a1a2e"/>
<polygon points="380,340 394,340 394,354 380,354" fill="#f0fdf4" opacity="0.9"/>
<!-- Neck -->
<polygon points="228,172 284,172 288,210 224,210" fill="#f5c87a"/>
<polygon points="238,172 274,172 276,192 236,192" fill="#e8b85a"/>
<!-- Head -->
<polygon points="192,88 320,88 328,172 184,172" fill="#f8d48e"/>
<polygon points="192,88 216,88 208,172 184,172" fill="#ecc070"/>
<polygon points="296,88 320,88 328,172 306,172" fill="#e0aa50"/>
<polygon points="216,88 296,88 290,120 222,120" fill="#fce4a8"/>
<!-- Hair very dark -->
<polygon points="188,88 320,88 314,70 194,70" fill="#111827"/>
<polygon points="194,70 314,70 308,54 200,54" fill="#1f2937"/>
<polygon points="200,54 308,54 302,40 206,40" fill="#111827"/>
<polygon points="206,40 302,40 296,30 212,30" fill="#060c18"/>
<polygon points="188,88 200,54 180,100 174,130" fill="#111827"/>
<polygon points="320,88 308,54 328,102 334,132" fill="#060c18"/>
<!-- Eyes -->
<polygon points="210,118 230,114 232,121 212,124" fill="#111827"/>
<polygon points="280,114 300,118 298,124 278,121" fill="#111827"/>
<polygon points="213,126 229,124 231,138 215,140" fill="#060c18"/>
<polygon points="280,124 296,126 294,138 278,136" fill="#060c18"/>
<polygon points="215,127 221,126 222,131 216,132" fill="#fff" opacity="0.8"/>
<polygon points="282,126 288,127 287,132 281,131" fill="#fff" opacity="0.8"/>
<!-- Nose -->
<polygon points="246,148 266,148 270,162 256,165 242,162" fill="#e0aa50"/>
<!-- Mouth - determined expression -->
<polygon points="228,164 284,162 286,169 256,172 226,169" fill="#c0392b"/>
<polygon points="226,169 286,167 284,174 228,174" fill="#922b21"/>
<!-- Label -->
<rect x="144" y="490" width="224" height="18" rx="9" fill="#166534"/>
<text x="256" y="503" text-anchor="middle" font-family="sans-serif" font-size="11" font-weight="700" fill="#ffffff" letter-spacing="1">HSLP · 철저한 혼자형 전략가</text>
</svg>
