<svg width="512" height="512" viewBox="0 0 512 512" xmlns="http://www.w3.org/2000/svg">
<!-- Background concert-light circles corners -->
<circle cx="70" cy="70" r="50" fill="#7c3aed" opacity="0.08"/>
<circle cx="70" cy="70" r="34" fill="#ec4899" opacity="0.06"/>
<circle cx="442" cy="70" r="50" fill="#ec4899" opacity="0.08"/>
<circle cx="442" cy="70" r="34" fill="#7c3aed" opacity="0.06"/>
<!-- Star sparkle decorations background -->
<polygon points="60,40 63,50 73,50 65,56 68,66 60,60 52,66 55,56 47,50 57,50" fill="#a855f7" opacity="0.4"/>
<polygon points="452,38 455,48 465,48 457,54 460,64 452,58 444,64 447,54 439,48 449,48" fill="#ec4899" opacity="0.4"/>
<polygon points="30,160 32,166 38,166 34,170 35,176 30,173 25,176 26,170 22,166 28,166" fill="#7c3aed" opacity="0.3"/>
<polygon points="482,155 484,161 490,161 486,165 487,171 482,168 477,171 478,165 474,161 480,161" fill="#ec4899" opacity="0.3"/>
<polygon points="100,30 102,36 108,36 104,40 105,46 100,43 95,46 96,40 92,36 98,36" fill="#c084fc" opacity="0.3"/>
<polygon points="412,28 414,34 420,34 416,38 417,44 412,41 407,44 408,38 404,34 410,34" fill="#f472b6" opacity="0.3"/>
<!-- Shadow -->
<ellipse cx="256" cy="478" rx="80" ry="10" fill="#00000012"/>
<!-- Shoes -->
<polygon points="178,455 214,453 216,468 175,470" fill="#4c1d95"/>
<polygon points="175,470 216,468 214,476 173,478" fill="#3b1572"/>
<polygon points="242,453 278,455 282,476 240,478" fill="#4c1d95"/>
<polygon points="240,478 282,476 280,484 238,484" fill="#3b1572"/>
<!-- Legs -->
<polygon points="184,370 210,370 208,455 180,455" fill="#7c3aed"/>
<polygon points="180,455 208,455 206,468 178,468" fill="#6d28d9"/>
<polygon points="246,370 272,370 278,455 248,455" fill="#7c3aed"/>
<polygon points="248,455 278,455 280,468 246,468" fill="#6d28d9"/>
<!-- Body main violet -->
<polygon points="175,210 338,210 348,374 162,374" fill="#7c3aed"/>
<polygon points="175,210 200,210 182,374 162,374" fill="#6d28d9"/>
<polygon points="312,210 338,210 348,374 325,374" fill="#6d28d9"/>
<polygon points="208,210 304,210 298,318 214,318" fill="#8b5cf6"/>
<!-- Hot pink diagonal accent stripes over body -->
<polygon points="210,240 240,210 260,210 230,240" fill="#ec4899" opacity="0.7"/>
<polygon points="250,280 290,230 310,230 270,280" fill="#ec4899" opacity="0.6"/>
<polygon points="280,320 320,270 340,270 300,320" fill="#f472b6" opacity="0.5"/>
<!-- Body lapels -->
<polygon points="210,210 256,255 200,308 182,228" fill="#4c1d95"/>
<polygon points="302,210 256,255 312,308 330,228" fill="#3b1572"/>
<!-- Chest detail -->
<polygon points="248,250 264,250 268,310 256,320 244,310" fill="#ede9fe"/>
<polygon points="252,262 260,262 264,308 256,315 248,308" fill="#c084fc"/>
<!-- Collar -->
<polygon points="214,208 256,232 298,208 288,200 256,218 224,200" fill="#faf5ff"/>
<!-- Left arm with laptop -->
<polygon points="175,216 145,225 125,318 156,326" fill="#7c3aed"/>
<polygon points="145,225 120,230 98,312 125,318" fill="#6d28d9"/>
<polygon points="98,312 126,316 124,332 96,328" fill="#faf5ff"/>
<polygon points="93,326 128,330 126,348 90,342" fill="#f5c87a"/>
<!-- Laptop/glowing screen on left side -->
<rect x="72" y="278" width="56" height="40" rx="3" fill="#1e1b4b" stroke="#7c3aed" stroke-width="2"/>
<rect x="75" y="281" width="50" height="32" rx="2" fill="#4c1d95" opacity="0.8"/>
<polygon points="78,286 118,284 118,291 78,293" fill="#a855f7" opacity="0.7"/>
<polygon points="78,295 112,293 112,300 78,302" fill="#c084fc" opacity="0.5"/>
<polygon points="78,304 106,302 106,309 78,311" fill="#7c3aed" opacity="0.6"/>
<polygon points="66,318 136,316 136,320 66,320" fill="#4c1d95"/>
<!-- Right arm raised - microphone -->
<polygon points="338,216 370,200 398,268 362,282" fill="#6d28d9"/>
<polygon points="370,200 402,188 428,255 398,268" fill="#7c3aed"/>
<polygon points="400,185 428,176 450,240 424,250" fill="#8b5cf6"/>
<!-- Microphone raised high -->
<polygon points="408,148 416,148 420,200 412,202" fill="#9ca3af"/>
<polygon points="406,148 418,144 422,160 410,164" fill="#e5e7eb"/>
<polygon points="404,138 420,134 422,150 406,154" fill="#d1d5db"/>
<circle cx="413" cy="130" r="12" fill="#374151"/>
<circle cx="413" cy="130" r="8" fill="#6b7280"/>
<circle cx="413" cy="130" r="4" fill="#f9fafb" opacity="0.6"/>
<!-- Star sparkles floating around character -->
<polygon points="145,165 147,172 154,172 149,177 151,184 145,180 139,184 141,177 136,172 143,172" fill="#ec4899" opacity="0.6"/>
<polygon points="370,155 372,160 378,160 374,163 375,168 370,165 365,168 366,163 362,160 368,160" fill="#a855f7" opacity="0.6"/>
<polygon points="430,230 432,236 438,236 434,240 435,246 430,243 425,246 426,240 422,236 428,236" fill="#ec4899" opacity="0.5"/>
<polygon points="110,250 112,255 117,255 114,258 115,263 110,260 105,263 106,258 103,255 108,255" fill="#c084fc" opacity="0.5"/>
<!-- Neck -->
<polygon points="228,172 284,172 288,210 224,210" fill="#f5c87a"/>
<polygon points="238,172 274,172 276,192 236,192" fill="#e8b85a"/>
<!-- Head -->
<polygon points="192,88 320,88 328,172 184,172" fill="#f8d48e"/>
<polygon points="192,88 216,88 208,172 184,172" fill="#ecc070"/>
<polygon points="296,88 320,88 328,172 306,172" fill="#e0aa50"/>
<polygon points="216,88 296,88 290,120 222,120" fill="#fce4a8"/>
<!-- Hair dark with slight flair -->
<polygon points="188,88 320,88 314,70 194,70" fill="#1a1a2e"/>
<polygon points="194,70 314,70 308,54 200,54" fill="#2a2a40"/>
<polygon points="200,54 308,54 302,40 206,40" fill="#1a1a2e"/>
<polygon points="206,40 302,40 296,30 212,30" fill="#0d0d1e"/>
<polygon points="188,88 200,54 180,100 174,130" fill="#1a1a2e"/>
<polygon points="320,88 308,54 328,102 334,132" fill="#0d0d1e"/>
<!-- Eyes -->
<polygon points="210,118 230,114 232,121 212,124" fill="#1a1a2e"/>
<polygon points="280,114 300,118 298,124 278,121" fill="#1a1a2e"/>
<polygon points="213,126 229,124 231,138 215,140" fill="#0d0d1e"/>
<polygon points="280,124 296,126 294,138 278,136" fill="#0d0d1e"/>
<polygon points="215,127 221,126 222,131 216,132" fill="#fff" opacity="0.8"/>
<polygon points="282,126 288,127 287,132 281,131" fill="#fff" opacity="0.8"/>
<!-- Nose -->
<polygon points="246,148 266,148 270,162 256,165 242,162" fill="#e0aa50"/>
<!-- Mouth excited -->
<polygon points="222,163 290,161 294,171 256,178 218,173" fill="#c0392b"/>
<polygon points="218,173 294,170 292,178 220,178" fill="#922b21"/>
<polygon points="224,164 288,162 286,171 226,171" fill="#f5e6e6"/>
<!-- Label -->
<rect x="144" y="490" width="224" height="18" rx="9" fill="#7c3aed"/>
<text x="256" y="503" text-anchor="middle" font-family="sans-serif" font-size="11" font-weight="700" fill="#ffffff" letter-spacing="1">TACF · AI 부리는 크리에이터</text>
</svg>
