<svg width="512" height="512" viewBox="0 0 512 512" xmlns="http://www.w3.org/2000/svg">
<!-- Background soft floating geometric shapes -->
<circle cx="70" cy="80" r="30" fill="#a78bfa" opacity="0.12"/>
<circle cx="440" cy="70" r="36" fill="#7c3aed" opacity="0.10"/>
<circle cx="50" cy="200" r="20" fill="#a78bfa" opacity="0.10"/>
<circle cx="470" cy="180" r="22" fill="#7c3aed" opacity="0.09"/>
<polygon points="80,40 94,55 66,55" fill="#c4b5fd" opacity="0.25"/>
<polygon points="430,35 444,50 416,50" fill="#a78bfa" opacity="0.25"/>
<polygon points="42,150 54,165 30,165" fill="#7c3aed" opacity="0.15"/>
<polygon points="462,148 474,163 450,163" fill="#c4b5fd" opacity="0.2"/>
<circle cx="100" cy="140" r="8" fill="#ddd6fe" opacity="0.5"/>
<circle cx="420" cy="145" r="10" fill="#c4b5fd" opacity="0.4"/>
<polygon points="55,250 65,265 45,265" fill="#a78bfa" opacity="0.15"/>
<polygon points="458,245 468,260 448,260" fill="#7c3aed" opacity="0.15"/>
<!-- Shadow -->
<ellipse cx="256" cy="478" rx="80" ry="10" fill="#00000012"/>
<!-- Shoes -->
<polygon points="178,455 214,453 216,468 175,470" fill="#5b21b6"/>
<polygon points="175,470 216,468 214,476 173,478" fill="#4a1998"/>
<polygon points="242,453 278,455 282,476 240,478" fill="#5b21b6"/>
<polygon points="240,478 282,476 280,484 238,484" fill="#4a1998"/>
<!-- Legs -->
<polygon points="184,370 210,370 208,455 180,455" fill="#7c3aed"/>
<polygon points="180,455 208,455 206,468 178,468" fill="#6d28d9"/>
<polygon points="246,370 272,370 278,455 248,455" fill="#7c3aed"/>
<polygon points="248,455 278,455 280,468 246,468" fill="#6d28d9"/>
<!-- Body main lavender/purple -->
<polygon points="175,210 338,210 348,374 162,374" fill="#7c3aed"/>
<polygon points="175,210 200,210 182,374 162,374" fill="#6d28d9"/>
<polygon points="312,210 338,210 348,374 325,374" fill="#6d28d9"/>
<polygon points="208,210 304,210 298,318 214,318" fill="#a78bfa"/>
<!-- Body lapels -->
<polygon points="210,210 256,255 200,308 182,228" fill="#5b21b6"/>
<polygon points="302,210 256,255 312,308 330,228" fill="#4a1998"/>
<!-- Chest detail -->
<polygon points="248,250 264,250 268,310 256,320 244,310" fill="#ede9fe"/>
<polygon points="252,262 260,262 264,308 256,315 248,308" fill="#c4b5fd"/>
<!-- Collar -->
<polygon points="214,208 256,232 298,208 288,200 256,218 224,200" fill="#f5f3ff"/>
<!-- Left arm -->
<polygon points="175,216 145,225 125,318 156,326" fill="#7c3aed"/>
<polygon points="145,225 120,230 98,312 125,318" fill="#6d28d9"/>
<polygon points="98,312 126,316 124,332 96,328" fill="#f5f3ff"/>
<polygon points="93,326 128,330 126,348 90,342" fill="#f5c87a"/>
<!-- Right arm - paintbrush extending toward right -->
<polygon points="338,216 368,220 392,295 358,308" fill="#6d28d9"/>
<polygon points="368,220 398,225 418,298 392,308" fill="#7c3aed"/>
<polygon points="418,295 448,305 444,322 414,312" fill="#f5c87a"/>
<!-- Paintbrush handle -->
<polygon points="420,298 432,302 450,340 438,344" fill="#92400e"/>
<polygon points="420,298 424,296 432,300 428,302" fill="#d97706"/>
<!-- Shared large canvas right side -->
<rect x="328" y="148" width="104" height="124" rx="4" fill="#faf5ff" stroke="#7c3aed" stroke-width="3"/>
<rect x="333" y="153" width="94" height="114" rx="2" fill="#f5f3ff" opacity="0.95"/>
<!-- Abstract soft shapes on canvas -->
<circle cx="368" cy="178" r="16" fill="#c4b5fd" opacity="0.6"/>
<circle cx="400" cy="200" r="12" fill="#a78bfa" opacity="0.5"/>
<polygon points="345,210 365,188 380,218 360,230" fill="#7c3aed" opacity="0.35"/>
<polygon points="372,220 398,202 414,228 390,240" fill="#ec4899" opacity="0.3"/>
<circle cx="355" cy="245" r="8" fill="#ddd6fe" opacity="0.7"/>
<circle cx="415" cy="232" r="6" fill="#c4b5fd" opacity="0.5"/>
<polygon points="342,255 360,242 374,258 356,270" fill="#a78bfa" opacity="0.3"/>
<!-- Neck -->
<polygon points="228,172 284,172 288,210 224,210" fill="#f5c87a"/>
<polygon points="238,172 274,172 276,192 236,192" fill="#e8b85a"/>
<!-- Head -->
<polygon points="192,88 320,88 328,172 184,172" fill="#f8d48e"/>
<polygon points="192,88 216,88 208,172 184,172" fill="#ecc070"/>
<polygon points="296,88 320,88 328,172 306,172" fill="#e0aa50"/>
<polygon points="216,88 296,88 290,120 222,120" fill="#fce4a8"/>
<!-- Hair dark -->
<polygon points="188,88 320,88 314,70 194,70" fill="#1a1a2e"/>
<polygon points="194,70 314,70 308,54 200,54" fill="#2a2a40"/>
<polygon points="200,54 308,54 302,40 206,40" fill="#1a1a2e"/>
<polygon points="206,40 302,40 296,30 212,30" fill="#0d0d1e"/>
<polygon points="188,88 200,54 180,100 174,130" fill="#1a1a2e"/>
<polygon points="320,88 308,54 328,102 334,132" fill="#0d0d1e"/>
<!-- Eyes soft -->
<polygon points="210,118 230,114 232,121 212,124" fill="#1a1a2e"/>
<polygon points="280,114 300,118 298,124 278,121" fill="#1a1a2e"/>
<polygon points="213,126 229,124 231,138 215,140" fill="#0d0d1e"/>
<polygon points="280,124 296,126 294,138 278,136" fill="#0d0d1e"/>
<polygon points="215,127 221,126 222,131 216,132" fill="#fff" opacity="0.8"/>
<polygon points="282,126 288,127 287,132 281,131" fill="#fff" opacity="0.8"/>
<!-- Nose -->
<polygon points="246,148 266,148 270,162 256,165 242,162" fill="#e0aa50"/>
<!-- Mouth gentle smile -->
<polygon points="228,164 284,162 287,169 256,174 225,170" fill="#c0392b"/>
<polygon points="225,170 287,168 285,175 227,175" fill="#922b21"/>
<polygon points="230,165 282,163 280,170 232,170" fill="#f5e6e6"/>
<!-- Label -->
<rect x="144" y="490" width="224" height="18" rx="9" fill="#7c3aed"/>
<text x="256" y="503" text-anchor="middle" font-family="sans-serif" font-size="11" font-weight="700" fill="#ffffff" letter-spacing="1">TACP · 협력형 AI 아티스트</text>
</svg>
