<svg width="512" height="512" viewBox="0 0 512 512" xmlns="http://www.w3.org/2000/svg">
<!-- Background warm radiating lines -->
<line x1="256" y1="300" x2="20" y2="100" stroke="#fda4af" stroke-width="1.2" opacity="0.2"/>
<line x1="256" y1="300" x2="256" y2="20" stroke="#fb7185" stroke-width="1.2" opacity="0.2"/>
<line x1="256" y1="300" x2="492" y2="100" stroke="#fda4af" stroke-width="1.2" opacity="0.2"/>
<line x1="256" y1="300" x2="10" y2="300" stroke="#fb7185" stroke-width="0.8" opacity="0.15"/>
<line x1="256" y1="300" x2="502" y2="300" stroke="#fb7185" stroke-width="0.8" opacity="0.15"/>
<line x1="256" y1="300" x2="100" y2="60" stroke="#fecdd3" stroke-width="0.8" opacity="0.18"/>
<line x1="256" y1="300" x2="412" y2="60" stroke="#fecdd3" stroke-width="0.8" opacity="0.18"/>
<!-- Soft hearts in corners -->
<polygon points="60,50 70,40 80,50 70,62" fill="#fb7185" opacity="0.3"/>
<polygon points="432,48 442,38 452,48 442,60" fill="#f43f5e" opacity="0.3"/>
<polygon points="40,140 48,132 56,140 48,150" fill="#fda4af" opacity="0.25"/>
<polygon points="456,138 464,130 472,138 464,148" fill="#fda4af" opacity="0.25"/>
<!-- Floating hearts above character -->
<polygon points="215,178 224,168 233,178 224,190" fill="#fb7185" opacity="0.5"/>
<polygon points="240,160 248,152 256,160 248,170" fill="#f43f5e" opacity="0.4"/>
<polygon points="263,175 271,166 279,175 271,186" fill="#fda4af" opacity="0.5"/>
<polygon points="190,165 197,157 204,165 197,174" fill="#fb7185" opacity="0.35"/>
<polygon points="284,163 291,155 298,163 291,172" fill="#f43f5e" opacity="0.35"/>
<!-- Shadow -->
<ellipse cx="256" cy="478" rx="80" ry="10" fill="#00000012"/>
<!-- Shoes -->
<polygon points="178,455 214,453 216,468 175,470" fill="#9d174d"/>
<polygon points="175,470 216,468 214,476 173,478" fill="#7a1240"/>
<polygon points="242,453 278,455 282,476 240,478" fill="#9d174d"/>
<polygon points="240,478 282,476 280,484 238,484" fill="#7a1240"/>
<!-- Legs -->
<polygon points="184,370 210,370 208,455 180,455" fill="#db2777"/>
<polygon points="180,455 208,455 206,468 178,468" fill="#be185d"/>
<polygon points="246,370 272,370 278,455 248,455" fill="#db2777"/>
<polygon points="248,455 278,455 280,468 246,468" fill="#be185d"/>
<!-- Body main bright pink -->
<polygon points="175,210 338,210 348,374 162,374" fill="#db2777"/>
<polygon points="175,210 200,210 182,374 162,374" fill="#be185d"/>
<polygon points="312,210 338,210 348,374 325,374" fill="#be185d"/>
<polygon points="208,210 304,210 298,318 214,318" fill="#ec4899"/>
<!-- Body lapels -->
<polygon points="210,210 256,255 200,308 182,228" fill="#9d174d"/>
<polygon points="302,210 256,255 312,308 330,228" fill="#831843"/>
<!-- Chest detail -->
<polygon points="248,250 264,250 268,310 256,320 244,310" fill="#fce7f3"/>
<polygon points="252,262 260,262 264,308 256,315 248,308" fill="#f9a8d4"/>
<!-- Collar -->
<polygon points="214,208 256,232 298,208 288,200 256,218 224,200" fill="#fff1f2"/>
<!-- Left arm stretched very wide hug left -->
<polygon points="175,216 115,210 68,268 108,285" fill="#db2777"/>
<polygon points="115,210 72,205 42,258 68,270" fill="#be185d"/>
<polygon points="42,258 72,265 68,282 38,275" fill="#fff1f2"/>
<polygon points="35,272 68,280 64,298 32,288" fill="#f5c87a"/>
<!-- Right arm stretched very wide hug right -->
<polygon points="338,216 398,210 444,268 404,285" fill="#be185d"/>
<polygon points="398,210 440,205 470,258 444,270" fill="#db2777"/>
<polygon points="444,255 472,262 468,280 440,272" fill="#fff1f2"/>
<polygon points="444,268 474,275 470,293 440,284" fill="#f5c87a"/>
<!-- Tiny team member stick figure left -->
<circle cx="105" cy="338" r="8" fill="#f8d48e"/>
<polygon points="101,346 109,346 110,366 100,366" fill="#3b82f6"/>
<polygon points="97,350 101,347 99,360 95,358" fill="#3b82f6"/>
<polygon points="109,347 113,350 111,360 107,358" fill="#3b82f6"/>
<polygon points="100,366 105,366 104,380 99,380" fill="#374151"/>
<polygon points="105,366 110,366 109,380 104,380" fill="#374151"/>
<!-- Tiny team member stick figure right -->
<circle cx="392" cy="340" r="8" fill="#f8d48e"/>
<polygon points="388,348 396,348 397,368 387,368" fill="#10b981"/>
<polygon points="384,352 388,349 386,362 382,360" fill="#10b981"/>
<polygon points="396,349 400,352 398,362 394,360" fill="#10b981"/>
<polygon points="387,368 392,368 391,382 386,382" fill="#374151"/>
<polygon points="392,368 397,368 396,382 391,382" fill="#374151"/>
<!-- Neck -->
<polygon points="228,172 284,172 288,210 224,210" fill="#f5c87a"/>
<polygon points="238,172 274,172 276,192 236,192" fill="#e8b85a"/>
<!-- Head -->
<polygon points="192,88 320,88 328,172 184,172" fill="#f8d48e"/>
<polygon points="192,88 216,88 208,172 184,172" fill="#ecc070"/>
<polygon points="296,88 320,88 328,172 306,172" fill="#e0aa50"/>
<polygon points="216,88 296,88 290,120 222,120" fill="#fce4a8"/>
<!-- Hair warm dark -->
<polygon points="188,88 320,88 314,70 194,70" fill="#2d1a1a"/>
<polygon points="194,70 314,70 308,54 200,54" fill="#3d2222"/>
<polygon points="200,54 308,54 302,40 206,40" fill="#2d1a1a"/>
<polygon points="206,40 302,40 296,30 212,30" fill="#1a0f0f"/>
<polygon points="188,88 200,54 180,100 174,130" fill="#2d1a1a"/>
<polygon points="320,88 308,54 328,102 334,132" fill="#1a0f0f"/>
<!-- Eyes -->
<polygon points="210,118 230,114 232,121 212,124" fill="#2d1a1a"/>
<polygon points="280,114 300,118 298,124 278,121" fill="#2d1a1a"/>
<polygon points="213,126 229,124 231,138 215,140" fill="#1a0f0f"/>
<polygon points="280,124 296,126 294,138 278,136" fill="#1a0f0f"/>
<polygon points="215,127 221,126 222,131 216,132" fill="#fff" opacity="0.8"/>
<polygon points="282,126 288,127 287,132 281,131" fill="#fff" opacity="0.8"/>
<!-- Nose -->
<polygon points="246,148 266,148 270,162 256,165 242,162" fill="#e0aa50"/>
<!-- Mouth big warm smile -->
<polygon points="218,162 294,160 299,172 256,182 213,174" fill="#c0392b"/>
<polygon points="213,174 299,172 297,180 215,180" fill="#922b21"/>
<polygon points="220,163 292,161 296,171 256,178 216,173" fill="#f5e6e6"/>
<!-- Label -->
<rect x="136" y="490" width="240" height="18" rx="9" fill="#db2777"/>
<text x="256" y="503" text-anchor="middle" font-family="sans-serif" font-size="11" font-weight="700" fill="#ffffff" letter-spacing="1">TSCF · 감성으로 팀 살리는 사람</text>
</svg>
