<svg width="512" height="512" viewBox="0 0 512 512" xmlns="http://www.w3.org/2000/svg">
<!-- Background celebration confetti -->
<polygon points="42,50 48,44 54,50 48,56" fill="#ef4444" opacity="0.5"/>
<polygon points="78,30 82,24 88,30 82,36" fill="#3b82f6" opacity="0.4"/>
<polygon points="22,100 28,94 34,100 28,106" fill="#22c55e" opacity="0.4"/>
<polygon points="455,45 461,39 467,45 461,51" fill="#f59e0b" opacity="0.5"/>
<polygon points="480,80 486,74 492,80 486,86" fill="#ec4899" opacity="0.4"/>
<polygon points="430,100 436,94 442,100 436,106" fill="#3b82f6" opacity="0.4"/>
<rect x="60" y="65" width="8" height="5" rx="1" fill="#ef4444" opacity="0.4" transform="rotate(-20,64,67)"/>
<rect x="90" y="45" width="8" height="5" rx="1" fill="#3b82f6" opacity="0.4" transform="rotate(15,94,47)"/>
<rect x="440" y="60" width="8" height="5" rx="1" fill="#22c55e" opacity="0.4" transform="rotate(-30,444,62)"/>
<rect x="465" y="100" width="8" height="5" rx="1" fill="#f59e0b" opacity="0.4" transform="rotate(25,469,102)"/>
<circle cx="55" cy="130" r="4" fill="#ec4899" opacity="0.4"/>
<circle cx="460" cy="135" r="4" fill="#ef4444" opacity="0.4"/>
<circle cx="30" cy="175" r="3" fill="#3b82f6" opacity="0.3"/>
<circle cx="482" cy="170" r="3" fill="#22c55e" opacity="0.3"/>
<!-- Small celebrating figure shapes -->
<circle cx="70" cy="360" r="6" fill="#f8d48e" opacity="0.7"/>
<polygon points="66,366 74,366 76,382 64,382" fill="#3b82f6" opacity="0.5"/>
<circle cx="440" cy="358" r="6" fill="#f8d48e" opacity="0.7"/>
<polygon points="436,364 444,364 446,380 434,380" fill="#22c55e" opacity="0.5"/>
<!-- More confetti scattered -->
<rect x="380" y="200" width="7" height="4" rx="1" fill="#ec4899" opacity="0.4" transform="rotate(40,383,202)"/>
<rect x="130" y="195" width="7" height="4" rx="1" fill="#3b82f6" opacity="0.4" transform="rotate(-35,133,197)"/>
<rect x="420" y="280" width="7" height="4" rx="1" fill="#f59e0b" opacity="0.4" transform="rotate(20,423,282)"/>
<rect x="90" y="275" width="7" height="4" rx="1" fill="#ef4444" opacity="0.4" transform="rotate(-15,93,277)"/>
<polygon points="395,160 400,152 406,160 400,168" fill="#a855f7" opacity="0.4"/>
<polygon points="108,158 114,150 120,158 114,166" fill="#22c55e" opacity="0.4"/>
<!-- Shadow -->
<ellipse cx="256" cy="478" rx="80" ry="10" fill="#00000012"/>
<!-- Shoes -->
<polygon points="178,455 214,453 216,468 175,470" fill="#7c2d12"/>
<polygon points="175,470 216,468 214,476 173,478" fill="#5e2008"/>
<polygon points="242,453 278,455 282,476 240,478" fill="#7c2d12"/>
<polygon points="240,478 282,476 280,484 238,484" fill="#5e2008"/>
<!-- Legs -->
<polygon points="184,370 210,370 208,455 180,455" fill="#c2410c"/>
<polygon points="180,455 208,455 206,468 178,468" fill="#9a3412"/>
<polygon points="246,370 272,370 278,455 248,455" fill="#c2410c"/>
<polygon points="248,455 278,455 280,468 246,468" fill="#9a3412"/>
<!-- Body main coral -->
<polygon points="175,210 338,210 348,374 162,374" fill="#c2410c"/>
<polygon points="175,210 200,210 182,374 162,374" fill="#9a3412"/>
<polygon points="312,210 338,210 348,374 325,374" fill="#9a3412"/>
<polygon points="208,210 304,210 298,318 214,318" fill="#ea580c"/>
<!-- Peach accents on chest area -->
<polygon points="214,220 256,258 296,220 286,212 256,235 226,212" fill="#fed7aa"/>
<!-- Body lapels -->
<polygon points="210,210 256,255 200,308 182,228" fill="#7c2d12"/>
<polygon points="302,210 256,255 312,308 330,228" fill="#6a2510"/>
<!-- Chest detail -->
<polygon points="248,250 264,250 268,310 256,320 244,310" fill="#ffedd5"/>
<polygon points="252,262 260,262 264,308 256,315 248,308" fill="#fb923c"/>
<!-- Collar -->
<polygon points="214,208 256,232 298,208 288,200 256,218 224,200" fill="#fff7ed"/>
<!-- Left arm holding giant checklist -->
<polygon points="175,216 148,224 130,308 160,318" fill="#c2410c"/>
<polygon points="148,224 124,230 105,308 130,312" fill="#9a3412"/>
<polygon points="105,308 134,312 132,328 103,324" fill="#fff7ed"/>
<!-- Giant checklist -->
<rect x="60" y="178" width="80" height="120" rx="4" fill="#f8fafc" stroke="#9a3412" stroke-width="2"/>
<polygon points="66,196 134,194 134,202 66,204" fill="#e2e8f0" opacity="0.8"/>
<polygon points="66,214 134,212 134,220 66,222" fill="#e2e8f0" opacity="0.8"/>
<polygon points="66,232 134,230 134,238 66,240" fill="#e2e8f0" opacity="0.8"/>
<polygon points="66,250 134,248 134,256 66,258" fill="#e2e8f0" opacity="0.8"/>
<polygon points="66,268 134,266 134,274 66,276" fill="#e2e8f0" opacity="0.8"/>
<!-- Green checkmarks -->
<polygon points="68,196 74,202 84,192 86,194 74,206 66,198" fill="#10b981"/>
<polygon points="68,214 74,220 84,210 86,212 74,224 66,216" fill="#10b981"/>
<polygon points="68,232 74,238 84,228 86,230 74,242 66,234" fill="#10b981"/>
<polygon points="68,250 74,256 84,246 86,248 74,260 66,252" fill="#10b981"/>
<!-- One unchecked box -->
<rect x="68" y="266" width="10" height="8" rx="1" fill="none" stroke="#9a3412" stroke-width="1.5"/>
<!-- Right arm thumbs up -->
<polygon points="338,216 368,225 390,300 354,314" fill="#9a3412"/>
<polygon points="368,225 396,234 415,305 390,315" fill="#c2410c"/>
<polygon points="394,298 420,290 424,308 398,316" fill="#fff7ed"/>
<polygon points="396,285 424,276 428,290 400,298" fill="#f5c87a"/>
<!-- Thumbs up gesture -->
<polygon points="408,268 424,264 428,280 412,284" fill="#f5c87a"/>
<polygon points="410,258 422,254 426,268 414,272" fill="#e8b85a"/>
<polygon points="412,248 420,244 424,258 416,262" fill="#f5c87a"/>
<polygon points="413,238 420,235 424,248 417,251" fill="#e8b85a"/>
<!-- Thumb pointing up extension -->
<polygon points="415,230 420,228 422,242 417,244" fill="#f5c87a"/>
<polygon points="416,220 420,218 422,232 418,234" fill="#f5c87a"/>
<circle cx="419" cy="216" r="4" fill="#f5c87a"/>
<!-- Neck -->
<polygon points="228,172 284,172 288,210 224,210" fill="#f5c87a"/>
<polygon points="238,172 274,172 276,192 236,192" fill="#e8b85a"/>
<!-- Head -->
<polygon points="192,88 320,88 328,172 184,172" fill="#f8d48e"/>
<polygon points="192,88 216,88 208,172 184,172" fill="#ecc070"/>
<polygon points="296,88 320,88 328,172 306,172" fill="#e0aa50"/>
<polygon points="216,88 296,88 290,120 222,120" fill="#fce4a8"/>
<!-- Hair neat dark -->
<polygon points="188,88 320,88 314,70 194,70" fill="#111827"/>
<polygon points="194,70 314,70 308,54 200,54" fill="#1f2937"/>
<polygon points="200,54 308,54 302,40 206,40" fill="#111827"/>
<polygon points="206,40 302,40 296,30 212,30" fill="#060c18"/>
<polygon points="188,88 200,54 180,100 174,130" fill="#111827"/>
<polygon points="320,88 308,54 328,102 334,132" fill="#060c18"/>
<!-- Eyes happy -->
<polygon points="210,118 230,114 232,121 212,124" fill="#111827"/>
<polygon points="280,114 300,118 298,124 278,121" fill="#111827"/>
<polygon points="213,126 229,124 231,138 215,140" fill="#060c18"/>
<polygon points="280,124 296,126 294,138 278,136" fill="#060c18"/>
<polygon points="215,127 221,126 222,131 216,132" fill="#fff" opacity="0.8"/>
<polygon points="282,126 288,127 287,132 281,131" fill="#fff" opacity="0.8"/>
<!-- Nose -->
<polygon points="246,148 266,148 270,162 256,165 242,162" fill="#e0aa50"/>
<!-- Mouth satisfied smile -->
<polygon points="220,163 292,161 296,171 256,177 216,173" fill="#c0392b"/>
<polygon points="216,173 296,170 294,178 218,178" fill="#922b21"/>
<polygon points="222,164 290,162 288,171 224,171" fill="#f5e6e6"/>
<!-- Label -->
<rect x="150" y="490" width="212" height="18" rx="9" fill="#c2410c"/>
<text x="256" y="503" text-anchor="middle" font-family="sans-serif" font-size="11" font-weight="700" fill="#ffffff" letter-spacing="1">TSCP · 완벽한 팀의 완성자</text>
</svg>
