<svg width="512" height="512" viewBox="0 0 512 512" xmlns="http://www.w3.org/2000/svg">
<!-- Background networking nodes and lines -->
<circle cx="60" cy="60" r="5" fill="#0ea5e9" opacity="0.5"/>
<circle cx="130" cy="40" r="4" fill="#0ea5e9" opacity="0.4"/>
<circle cx="90" cy="100" r="4" fill="#38bdf8" opacity="0.4"/>
<line x1="60" y1="60" x2="130" y2="40" stroke="#7dd3fc" stroke-width="1" opacity="0.4"/>
<line x1="130" y1="40" x2="90" y2="100" stroke="#7dd3fc" stroke-width="1" opacity="0.4"/>
<line x1="60" y1="60" x2="90" y2="100" stroke="#7dd3fc" stroke-width="1" opacity="0.35"/>
<circle cx="420" cy="55" r="5" fill="#0ea5e9" opacity="0.5"/>
<circle cx="460" cy="80" r="4" fill="#38bdf8" opacity="0.4"/>
<circle cx="390" cy="90" r="4" fill="#0ea5e9" opacity="0.4"/>
<line x1="420" y1="55" x2="460" y2="80" stroke="#7dd3fc" stroke-width="1" opacity="0.4"/>
<line x1="460" y1="80" x2="390" y2="90" stroke="#7dd3fc" stroke-width="1" opacity="0.35"/>
<line x1="420" y1="55" x2="390" y2="90" stroke="#7dd3fc" stroke-width="1" opacity="0.35"/>
<circle cx="50" cy="160" r="4" fill="#0ea5e9" opacity="0.35"/>
<circle cx="30" cy="120" r="3" fill="#38bdf8" opacity="0.3"/>
<line x1="30" y1="120" x2="50" y2="160" stroke="#bae6fd" stroke-width="0.8" opacity="0.4"/>
<circle cx="470" cy="155" r="4" fill="#0ea5e9" opacity="0.35"/>
<circle cx="490" cy="115" r="3" fill="#38bdf8" opacity="0.3"/>
<line x1="490" y1="115" x2="470" y2="155" stroke="#bae6fd" stroke-width="0.8" opacity="0.4"/>
<!-- Shadow -->
<ellipse cx="256" cy="478" rx="80" ry="10" fill="#00000012"/>
<!-- Shoes -->
<polygon points="178,455 214,453 216,468 175,470" fill="#0369a1"/>
<polygon points="175,470 216,468 214,476 173,478" fill="#0c4a6e"/>
<polygon points="242,453 278,455 282,476 240,478" fill="#0369a1"/>
<polygon points="240,478 282,476 280,484 238,484" fill="#0c4a6e"/>
<!-- Legs -->
<polygon points="184,370 210,370 208,455 180,455" fill="#0ea5e9"/>
<polygon points="180,455 208,455 206,468 178,468" fill="#0284c7"/>
<polygon points="246,370 272,370 278,455 248,455" fill="#0ea5e9"/>
<polygon points="248,455 278,455 280,468 246,468" fill="#0284c7"/>
<!-- Body main sky blue and white -->
<polygon points="175,210 338,210 348,374 162,374" fill="#0ea5e9"/>
<polygon points="175,210 200,210 182,374 162,374" fill="#0284c7"/>
<polygon points="312,210 338,210 348,374 325,374" fill="#0284c7"/>
<polygon points="208,210 304,210 298,318 214,318" fill="#38bdf8"/>
<!-- Body lapels white-ish -->
<polygon points="210,210 256,255 200,308 182,228" fill="#e0f2fe"/>
<polygon points="302,210 256,255 312,308 330,228" fill="#bae6fd"/>
<!-- Chest detail -->
<polygon points="248,250 264,250 268,310 256,320 244,310" fill="#f0f9ff"/>
<polygon points="252,262 260,262 264,308 256,315 248,308" fill="#7dd3fc"/>
<!-- Collar white -->
<polygon points="214,208 256,232 298,208 288,200 256,218 224,200" fill="#f0f9ff"/>
<!-- Left arm -->
<polygon points="175,216 145,225 125,318 156,326" fill="#0ea5e9"/>
<polygon points="145,225 120,230 98,312 125,318" fill="#0284c7"/>
<polygon points="98,312 126,316 124,332 96,328" fill="#f0f9ff"/>
<polygon points="93,326 128,330 126,348 90,342" fill="#f5c87a"/>
<!-- Right arm fully extended for handshake -->
<polygon points="338,216 375,218 420,295 378,308" fill="#0284c7"/>
<polygon points="375,218 415,222 455,295 420,308" fill="#0ea5e9"/>
<polygon points="438,290 466,298 460,316 432,308" fill="#f0f9ff"/>
<polygon points="440,285 468,292 464,308 436,300" fill="#f5c87a"/>
<!-- Handshake hand polygon at far right -->
<polygon points="448,288 468,284 472,298 452,302" fill="#f5c87a"/>
<polygon points="452,282 462,278 466,290 456,294" fill="#e8b85a"/>
<polygon points="456,276 464,273 467,284 459,287" fill="#f5c87a"/>
<polygon points="460,270 467,268 469,279 462,281" fill="#e8b85a"/>
<!-- Business cards flying in all directions -->
<polygon points="44,318 82,315 82,326 44,329" fill="#f0f9ff" stroke="#0ea5e9" stroke-width="1.2"/>
<polygon points="34,280 66,268 68,278 36,290" fill="#f0f9ff" stroke="#38bdf8" stroke-width="1.2"/>
<polygon points="58,350 94,348 94,358 58,360" fill="#f0f9ff" stroke="#0284c7" stroke-width="1.2"/>
<polygon points="435,260 460,248 464,256 439,268" fill="#f0f9ff" stroke="#0ea5e9" stroke-width="1.2"/>
<polygon points="448,310 476,308 476,318 448,320" fill="#f0f9ff" stroke="#38bdf8" stroke-width="1.2"/>
<polygon points="60,240 92,238 92,248 60,250" fill="#f0f9ff" stroke="#0ea5e9" stroke-width="1.2"/>
<!-- Neck -->
<polygon points="228,172 284,172 288,210 224,210" fill="#f5c87a"/>
<polygon points="238,172 274,172 276,192 236,192" fill="#e8b85a"/>
<!-- Head -->
<polygon points="192,88 320,88 328,172 184,172" fill="#f8d48e"/>
<polygon points="192,88 216,88 208,172 184,172" fill="#ecc070"/>
<polygon points="296,88 320,88 328,172 306,172" fill="#e0aa50"/>
<polygon points="216,88 296,88 290,120 222,120" fill="#fce4a8"/>
<!-- Hair dark styled -->
<polygon points="188,88 320,88 314,70 194,70" fill="#1a1a2e"/>
<polygon points="194,70 314,70 308,54 200,54" fill="#2a2a40"/>
<polygon points="200,54 308,54 302,40 206,40" fill="#1a1a2e"/>
<polygon points="206,40 302,40 296,30 212,30" fill="#0d0d1e"/>
<polygon points="188,88 200,54 180,100 174,130" fill="#1a1a2e"/>
<polygon points="320,88 308,54 328,102 334,132" fill="#0d0d1e"/>
<!-- Eyes -->
<polygon points="210,118 230,114 232,121 212,124" fill="#1a1a2e"/>
<polygon points="280,114 300,118 298,124 278,121" fill="#1a1a2e"/>
<polygon points="213,126 229,124 231,138 215,140" fill="#0d0d1e"/>
<polygon points="280,124 296,126 294,138 278,136" fill="#0d0d1e"/>
<polygon points="215,127 221,126 222,131 216,132" fill="#fff" opacity="0.8"/>
<polygon points="282,126 288,127 287,132 281,131" fill="#fff" opacity="0.8"/>
<!-- Nose -->
<polygon points="246,148 266,148 270,162 256,165 242,162" fill="#e0aa50"/>
<!-- Mouth big smile -->
<polygon points="218,163 294,161 300,173 256,182 214,175" fill="#c0392b"/>
<polygon points="214,175 300,172 298,180 216,180" fill="#922b21"/>
<polygon points="220,164 292,162 296,171 256,178 218,173" fill="#f5e6e6"/>
<!-- Label -->
<rect x="144" y="490" width="224" height="18" rx="9" fill="#0ea5e9"/>
<text x="256" y="503" text-anchor="middle" font-family="sans-serif" font-size="11" font-weight="700" fill="#ffffff" letter-spacing="1">TSLF · 사람으로 굴러가는 분석가</text>
</svg>
